<mxfile host="app.diagrams.net" modified="2023-08-10T09:47:44.114Z" agent="Mozilla/5.0 (Windows NT 10.0; Win64; x64) AppleWebKit/537.36 (KHTML, like Gecko) Chrome/115.0.0.0 Safari/537.36 Edg/115.0.1901.188" etag="ZFU79id96aOztKYjpyIF" version="21.6.5" type="github" pages="2">
  <diagram id="_4ErnGNw5acjuUnZQd9g" name="第 1 页">
    <mxGraphModel dx="1379" dy="774" grid="1" gridSize="10" guides="1" tooltips="1" connect="1" arrows="1" fold="1" page="1" pageScale="1" pageWidth="827" pageHeight="1169" math="0" shadow="0">
      <root>
        <mxCell id="0" />
        <mxCell id="1" parent="0" />
        <mxCell id="FDQOqPrQZNCEI5LStUVV-4" style="edgeStyle=orthogonalEdgeStyle;rounded=0;orthogonalLoop=1;jettySize=auto;html=1;exitX=1;exitY=0.5;exitDx=0;exitDy=0;fontSize=23;" parent="1" source="FDQOqPrQZNCEI5LStUVV-1" target="FDQOqPrQZNCEI5LStUVV-2" edge="1">
          <mxGeometry relative="1" as="geometry" />
        </mxCell>
        <mxCell id="FDQOqPrQZNCEI5LStUVV-1" value="&lt;font style=&quot;font-size: 23px;&quot;&gt;开始&lt;/font&gt;" style="rounded=1;whiteSpace=wrap;html=1;" parent="1" vertex="1">
          <mxGeometry x="70" y="370" width="70" height="30" as="geometry" />
        </mxCell>
        <mxCell id="FDQOqPrQZNCEI5LStUVV-9" style="edgeStyle=orthogonalEdgeStyle;rounded=0;orthogonalLoop=1;jettySize=auto;html=1;exitX=1;exitY=0.5;exitDx=0;exitDy=0;fontSize=11;" parent="1" source="FDQOqPrQZNCEI5LStUVV-2" target="FDQOqPrQZNCEI5LStUVV-8" edge="1">
          <mxGeometry relative="1" as="geometry" />
        </mxCell>
        <mxCell id="FDQOqPrQZNCEI5LStUVV-2" value="待接单" style="ellipse;whiteSpace=wrap;html=1;aspect=fixed;fontSize=23;" parent="1" vertex="1">
          <mxGeometry x="200" y="345" width="80" height="80" as="geometry" />
        </mxCell>
        <mxCell id="FDQOqPrQZNCEI5LStUVV-7" value="生成&lt;br&gt;采购单" style="text;html=1;strokeColor=none;fillColor=none;align=center;verticalAlign=middle;whiteSpace=wrap;rounded=0;fontSize=11;" parent="1" vertex="1">
          <mxGeometry x="140" y="350" width="60" height="30" as="geometry" />
        </mxCell>
        <mxCell id="FDQOqPrQZNCEI5LStUVV-12" style="edgeStyle=orthogonalEdgeStyle;rounded=0;orthogonalLoop=1;jettySize=auto;html=1;exitX=1;exitY=0.5;exitDx=0;exitDy=0;fontSize=11;" parent="1" source="FDQOqPrQZNCEI5LStUVV-8" target="FDQOqPrQZNCEI5LStUVV-11" edge="1">
          <mxGeometry relative="1" as="geometry" />
        </mxCell>
        <mxCell id="FDQOqPrQZNCEI5LStUVV-29" style="edgeStyle=orthogonalEdgeStyle;rounded=0;orthogonalLoop=1;jettySize=auto;html=1;exitX=0.5;exitY=0;exitDx=0;exitDy=0;entryX=0.5;entryY=1;entryDx=0;entryDy=0;fontSize=12;startArrow=none;startFill=0;dashed=1;" parent="1" source="FDQOqPrQZNCEI5LStUVV-8" target="FDQOqPrQZNCEI5LStUVV-17" edge="1">
          <mxGeometry relative="1" as="geometry" />
        </mxCell>
        <mxCell id="FDQOqPrQZNCEI5LStUVV-8" value="待发货" style="ellipse;whiteSpace=wrap;html=1;aspect=fixed;fontSize=23;" parent="1" vertex="1">
          <mxGeometry x="334" y="345" width="80" height="80" as="geometry" />
        </mxCell>
        <mxCell id="FDQOqPrQZNCEI5LStUVV-10" value="接单" style="text;html=1;align=center;verticalAlign=middle;resizable=0;points=[];autosize=1;strokeColor=none;fillColor=none;fontSize=11;" parent="1" vertex="1">
          <mxGeometry x="275" y="345" width="50" height="30" as="geometry" />
        </mxCell>
        <mxCell id="FDQOqPrQZNCEI5LStUVV-34" style="edgeStyle=orthogonalEdgeStyle;rounded=0;orthogonalLoop=1;jettySize=auto;html=1;exitX=1;exitY=0.5;exitDx=0;exitDy=0;fontSize=12;startArrow=none;startFill=0;" parent="1" source="FDQOqPrQZNCEI5LStUVV-11" target="FDQOqPrQZNCEI5LStUVV-33" edge="1">
          <mxGeometry relative="1" as="geometry" />
        </mxCell>
        <mxCell id="FDQOqPrQZNCEI5LStUVV-11" value="待收货" style="ellipse;whiteSpace=wrap;html=1;aspect=fixed;fontSize=23;" parent="1" vertex="1">
          <mxGeometry x="450" y="345" width="80" height="80" as="geometry" />
        </mxCell>
        <mxCell id="FDQOqPrQZNCEI5LStUVV-13" value="发货" style="text;html=1;align=center;verticalAlign=middle;resizable=0;points=[];autosize=1;strokeColor=none;fillColor=none;fontSize=11;" parent="1" vertex="1">
          <mxGeometry x="400" y="350" width="50" height="30" as="geometry" />
        </mxCell>
        <mxCell id="FDQOqPrQZNCEI5LStUVV-16" value="" style="line;strokeWidth=1;html=1;perimeter=backbonePerimeter;points=[];outlineConnect=0;fontSize=11;" parent="1" vertex="1">
          <mxGeometry x="70" y="320" width="920" height="10" as="geometry" />
        </mxCell>
        <mxCell id="qCSMj7afyLva7ldJmSUC-21" style="edgeStyle=orthogonalEdgeStyle;rounded=0;orthogonalLoop=1;jettySize=auto;html=1;exitX=0.5;exitY=0;exitDx=0;exitDy=0;fontSize=14;" parent="1" source="FDQOqPrQZNCEI5LStUVV-17" target="FDQOqPrQZNCEI5LStUVV-18" edge="1">
          <mxGeometry relative="1" as="geometry" />
        </mxCell>
        <mxCell id="FDQOqPrQZNCEI5LStUVV-17" value="&lt;font style=&quot;font-size: 20px;&quot;&gt;测量单&lt;/font&gt;" style="rhombus;whiteSpace=wrap;html=1;strokeWidth=1;fontSize=11;fillColor=#dae8fc;strokeColor=#6c8ebf;" parent="1" vertex="1">
          <mxGeometry x="334" y="220" width="80" height="80" as="geometry" />
        </mxCell>
        <mxCell id="qCSMj7afyLva7ldJmSUC-22" style="edgeStyle=orthogonalEdgeStyle;rounded=0;orthogonalLoop=1;jettySize=auto;html=1;exitX=0.5;exitY=0;exitDx=0;exitDy=0;entryX=0.5;entryY=1;entryDx=0;entryDy=0;fontSize=14;" parent="1" source="FDQOqPrQZNCEI5LStUVV-18" target="FDQOqPrQZNCEI5LStUVV-19" edge="1">
          <mxGeometry relative="1" as="geometry" />
        </mxCell>
        <mxCell id="FDQOqPrQZNCEI5LStUVV-18" value="&lt;font style=&quot;font-size: 15px;&quot;&gt;待测量报价&lt;/font&gt;" style="rounded=1;whiteSpace=wrap;html=1;fillColor=#dae8fc;strokeColor=#6c8ebf;" parent="1" vertex="1">
          <mxGeometry x="331.5" y="177.5" width="85" height="30" as="geometry" />
        </mxCell>
        <mxCell id="qCSMj7afyLva7ldJmSUC-23" style="edgeStyle=orthogonalEdgeStyle;rounded=0;orthogonalLoop=1;jettySize=auto;html=1;exitX=0.5;exitY=0;exitDx=0;exitDy=0;entryX=0.5;entryY=1;entryDx=0;entryDy=0;fontSize=14;" parent="1" source="FDQOqPrQZNCEI5LStUVV-19" target="FDQOqPrQZNCEI5LStUVV-26" edge="1">
          <mxGeometry relative="1" as="geometry" />
        </mxCell>
        <mxCell id="FDQOqPrQZNCEI5LStUVV-19" value="&lt;span style=&quot;font-size: 15px;&quot;&gt;报价待审核&lt;/span&gt;" style="rounded=1;whiteSpace=wrap;html=1;fillColor=#dae8fc;strokeColor=#6c8ebf;" parent="1" vertex="1">
          <mxGeometry x="331.5" y="120" width="85" height="30" as="geometry" />
        </mxCell>
        <mxCell id="FDQOqPrQZNCEI5LStUVV-21" value="&lt;font style=&quot;font-size: 12px;&quot;&gt;报价&lt;/font&gt;" style="text;html=1;align=center;verticalAlign=middle;resizable=0;points=[];autosize=1;strokeColor=none;fillColor=none;fontSize=15;" parent="1" vertex="1">
          <mxGeometry x="375" y="147.5" width="50" height="30" as="geometry" />
        </mxCell>
        <mxCell id="qCSMj7afyLva7ldJmSUC-25" style="edgeStyle=orthogonalEdgeStyle;rounded=0;orthogonalLoop=1;jettySize=auto;html=1;exitX=0.5;exitY=1;exitDx=0;exitDy=0;fontSize=14;" parent="1" source="FDQOqPrQZNCEI5LStUVV-22" edge="1">
          <mxGeometry relative="1" as="geometry">
            <mxPoint x="370" y="160" as="targetPoint" />
            <Array as="points">
              <mxPoint x="243" y="160" />
              <mxPoint x="370" y="160" />
            </Array>
          </mxGeometry>
        </mxCell>
        <mxCell id="FDQOqPrQZNCEI5LStUVV-22" value="&lt;span style=&quot;font-size: 15px;&quot;&gt;报价驳回&lt;/span&gt;" style="rounded=1;whiteSpace=wrap;html=1;fillColor=#dae8fc;strokeColor=#6c8ebf;" parent="1" vertex="1">
          <mxGeometry x="180" y="60" width="85" height="30" as="geometry" />
        </mxCell>
        <mxCell id="FDQOqPrQZNCEI5LStUVV-24" value="驳回" style="text;html=1;align=center;verticalAlign=middle;resizable=0;points=[];autosize=1;strokeColor=none;fillColor=none;fontSize=12;" parent="1" vertex="1">
          <mxGeometry x="279" y="40" width="50" height="30" as="geometry" />
        </mxCell>
        <mxCell id="qCSMj7afyLva7ldJmSUC-24" style="edgeStyle=orthogonalEdgeStyle;rounded=0;orthogonalLoop=1;jettySize=auto;html=1;exitX=0;exitY=0.5;exitDx=0;exitDy=0;fontSize=14;" parent="1" source="FDQOqPrQZNCEI5LStUVV-26" target="FDQOqPrQZNCEI5LStUVV-22" edge="1">
          <mxGeometry relative="1" as="geometry" />
        </mxCell>
        <mxCell id="FDQOqPrQZNCEI5LStUVV-26" value="&lt;span style=&quot;font-size: 15px;&quot;&gt;报价已确认&lt;/span&gt;" style="rounded=1;whiteSpace=wrap;html=1;fillColor=#dae8fc;strokeColor=#6c8ebf;" parent="1" vertex="1">
          <mxGeometry x="329" y="60" width="85" height="30" as="geometry" />
        </mxCell>
        <mxCell id="FDQOqPrQZNCEI5LStUVV-28" value="确认" style="text;html=1;align=center;verticalAlign=middle;resizable=0;points=[];autosize=1;strokeColor=none;fillColor=none;fontSize=12;" parent="1" vertex="1">
          <mxGeometry x="325" y="90" width="50" height="30" as="geometry" />
        </mxCell>
        <mxCell id="FDQOqPrQZNCEI5LStUVV-37" style="edgeStyle=orthogonalEdgeStyle;rounded=0;orthogonalLoop=1;jettySize=auto;html=1;exitX=0.5;exitY=1;exitDx=0;exitDy=0;entryX=0.5;entryY=0;entryDx=0;entryDy=0;fontSize=12;startArrow=none;startFill=0;" parent="1" source="FDQOqPrQZNCEI5LStUVV-33" target="FDQOqPrQZNCEI5LStUVV-36" edge="1">
          <mxGeometry relative="1" as="geometry" />
        </mxCell>
        <mxCell id="qCSMj7afyLva7ldJmSUC-2" style="edgeStyle=orthogonalEdgeStyle;rounded=0;orthogonalLoop=1;jettySize=auto;html=1;exitX=1;exitY=0.5;exitDx=0;exitDy=0;entryX=0;entryY=0.5;entryDx=0;entryDy=0;" parent="1" source="FDQOqPrQZNCEI5LStUVV-33" target="qCSMj7afyLva7ldJmSUC-1" edge="1">
          <mxGeometry relative="1" as="geometry">
            <mxPoint x="692.5" y="385" as="targetPoint" />
          </mxGeometry>
        </mxCell>
        <mxCell id="qCSMj7afyLva7ldJmSUC-18" style="edgeStyle=orthogonalEdgeStyle;rounded=0;orthogonalLoop=1;jettySize=auto;html=1;exitX=0.5;exitY=0;exitDx=0;exitDy=0;fontSize=14;dashed=1;" parent="1" source="FDQOqPrQZNCEI5LStUVV-33" edge="1">
          <mxGeometry relative="1" as="geometry">
            <mxPoint x="609" y="287.5" as="targetPoint" />
          </mxGeometry>
        </mxCell>
        <mxCell id="FDQOqPrQZNCEI5LStUVV-33" value="待签收" style="ellipse;whiteSpace=wrap;html=1;aspect=fixed;fontSize=23;" parent="1" vertex="1">
          <mxGeometry x="569.5" y="345" width="80" height="80" as="geometry" />
        </mxCell>
        <mxCell id="FDQOqPrQZNCEI5LStUVV-35" value="送达" style="text;html=1;align=center;verticalAlign=middle;resizable=0;points=[];autosize=1;strokeColor=none;fillColor=none;fontSize=12;" parent="1" vertex="1">
          <mxGeometry x="520" y="345" width="50" height="30" as="geometry" />
        </mxCell>
        <mxCell id="FDQOqPrQZNCEI5LStUVV-38" style="edgeStyle=orthogonalEdgeStyle;rounded=0;orthogonalLoop=1;jettySize=auto;html=1;exitX=0;exitY=0.5;exitDx=0;exitDy=0;fontSize=12;startArrow=none;startFill=0;" parent="1" source="FDQOqPrQZNCEI5LStUVV-36" target="FDQOqPrQZNCEI5LStUVV-11" edge="1">
          <mxGeometry relative="1" as="geometry" />
        </mxCell>
        <mxCell id="FDQOqPrQZNCEI5LStUVV-36" value="拒绝收货" style="ellipse;whiteSpace=wrap;html=1;aspect=fixed;fontSize=23;fillColor=#d5e8d4;strokeColor=#82b366;" parent="1" vertex="1">
          <mxGeometry x="569.5" y="460" width="80" height="80" as="geometry" />
        </mxCell>
        <mxCell id="FDQOqPrQZNCEI5LStUVV-39" value="重新发货" style="text;html=1;align=center;verticalAlign=middle;resizable=0;points=[];autosize=1;strokeColor=none;fillColor=none;fontSize=12;" parent="1" vertex="1">
          <mxGeometry x="500" y="470" width="70" height="30" as="geometry" />
        </mxCell>
        <mxCell id="qCSMj7afyLva7ldJmSUC-5" style="edgeStyle=orthogonalEdgeStyle;rounded=0;orthogonalLoop=1;jettySize=auto;html=1;exitX=1;exitY=0.5;exitDx=0;exitDy=0;" parent="1" source="qCSMj7afyLva7ldJmSUC-1" target="qCSMj7afyLva7ldJmSUC-4" edge="1">
          <mxGeometry relative="1" as="geometry" />
        </mxCell>
        <mxCell id="qCSMj7afyLva7ldJmSUC-39" style="edgeStyle=orthogonalEdgeStyle;rounded=0;orthogonalLoop=1;jettySize=auto;html=1;exitX=0.5;exitY=0;exitDx=0;exitDy=0;entryX=0.5;entryY=1;entryDx=0;entryDy=0;fontSize=14;" parent="1" source="qCSMj7afyLva7ldJmSUC-1" target="qCSMj7afyLva7ldJmSUC-31" edge="1">
          <mxGeometry relative="1" as="geometry" />
        </mxCell>
        <mxCell id="qCSMj7afyLva7ldJmSUC-1" value="&lt;span style=&quot;font-size: 20px;&quot;&gt;需安装&lt;/span&gt;" style="rhombus;whiteSpace=wrap;html=1;strokeWidth=1;fontSize=11;fillColor=#d5e8d4;strokeColor=#82b366;" parent="1" vertex="1">
          <mxGeometry x="712.5" y="345" width="80" height="80" as="geometry" />
        </mxCell>
        <mxCell id="qCSMj7afyLva7ldJmSUC-3" value="签收" style="text;html=1;align=center;verticalAlign=middle;resizable=0;points=[];autosize=1;strokeColor=none;fillColor=none;" parent="1" vertex="1">
          <mxGeometry x="660" y="345" width="50" height="30" as="geometry" />
        </mxCell>
        <mxCell id="qCSMj7afyLva7ldJmSUC-7" style="edgeStyle=orthogonalEdgeStyle;rounded=0;orthogonalLoop=1;jettySize=auto;html=1;exitX=0.5;exitY=1;exitDx=0;exitDy=0;entryX=0.5;entryY=1;entryDx=0;entryDy=0;" parent="1" source="qCSMj7afyLva7ldJmSUC-4" target="qCSMj7afyLva7ldJmSUC-1" edge="1">
          <mxGeometry relative="1" as="geometry" />
        </mxCell>
        <mxCell id="qCSMj7afyLva7ldJmSUC-4" value="已完成" style="ellipse;whiteSpace=wrap;html=1;aspect=fixed;fontSize=23;fillColor=#d5e8d4;strokeColor=#82b366;" parent="1" vertex="1">
          <mxGeometry x="872.5" y="345" width="80" height="80" as="geometry" />
        </mxCell>
        <mxCell id="qCSMj7afyLva7ldJmSUC-6" value="验收且&lt;br&gt;同意搬楼费" style="text;html=1;align=center;verticalAlign=middle;resizable=0;points=[];autosize=1;strokeColor=none;fillColor=none;" parent="1" vertex="1">
          <mxGeometry x="782.5" y="340" width="80" height="40" as="geometry" />
        </mxCell>
        <mxCell id="qCSMj7afyLva7ldJmSUC-8" value="只同意搬楼费" style="text;html=1;align=center;verticalAlign=middle;resizable=0;points=[];autosize=1;strokeColor=none;fillColor=none;" parent="1" vertex="1">
          <mxGeometry x="772.5" y="445" width="100" height="30" as="geometry" />
        </mxCell>
        <mxCell id="qCSMj7afyLva7ldJmSUC-26" style="edgeStyle=orthogonalEdgeStyle;rounded=0;orthogonalLoop=1;jettySize=auto;html=1;exitX=0.5;exitY=0;exitDx=0;exitDy=0;entryX=0.5;entryY=1;entryDx=0;entryDy=0;fontSize=14;" parent="1" source="qCSMj7afyLva7ldJmSUC-9" target="qCSMj7afyLva7ldJmSUC-10" edge="1">
          <mxGeometry relative="1" as="geometry" />
        </mxCell>
        <mxCell id="qCSMj7afyLva7ldJmSUC-9" value="&lt;font style=&quot;font-size: 18px;&quot;&gt;有搬楼费&lt;/font&gt;" style="rhombus;whiteSpace=wrap;html=1;strokeWidth=1;fontSize=11;fillColor=#dae8fc;strokeColor=#6c8ebf;" parent="1" vertex="1">
          <mxGeometry x="570" y="207.5" width="80" height="80" as="geometry" />
        </mxCell>
        <mxCell id="qCSMj7afyLva7ldJmSUC-28" style="edgeStyle=orthogonalEdgeStyle;rounded=0;orthogonalLoop=1;jettySize=auto;html=1;exitX=0.5;exitY=0;exitDx=0;exitDy=0;entryX=0.5;entryY=1;entryDx=0;entryDy=0;fontSize=14;" parent="1" source="qCSMj7afyLva7ldJmSUC-10" target="qCSMj7afyLva7ldJmSUC-11" edge="1">
          <mxGeometry relative="1" as="geometry" />
        </mxCell>
        <mxCell id="qCSMj7afyLva7ldJmSUC-29" style="edgeStyle=orthogonalEdgeStyle;rounded=0;orthogonalLoop=1;jettySize=auto;html=1;exitX=1;exitY=0.5;exitDx=0;exitDy=0;fontSize=14;" parent="1" source="qCSMj7afyLva7ldJmSUC-10" target="qCSMj7afyLva7ldJmSUC-12" edge="1">
          <mxGeometry relative="1" as="geometry" />
        </mxCell>
        <mxCell id="qCSMj7afyLva7ldJmSUC-10" value="&lt;span style=&quot;font-size: 15px;&quot;&gt;搬楼费待审核&lt;/span&gt;" style="rounded=1;whiteSpace=wrap;html=1;fillColor=#dae8fc;strokeColor=#6c8ebf;" parent="1" vertex="1">
          <mxGeometry x="567.5" y="158.5" width="85" height="35" as="geometry" />
        </mxCell>
        <mxCell id="qCSMj7afyLva7ldJmSUC-30" style="edgeStyle=orthogonalEdgeStyle;rounded=0;orthogonalLoop=1;jettySize=auto;html=1;exitX=0;exitY=0.5;exitDx=0;exitDy=0;entryX=0;entryY=0.5;entryDx=0;entryDy=0;fontSize=14;" parent="1" source="qCSMj7afyLva7ldJmSUC-11" target="qCSMj7afyLva7ldJmSUC-10" edge="1">
          <mxGeometry relative="1" as="geometry" />
        </mxCell>
        <mxCell id="qCSMj7afyLva7ldJmSUC-11" value="&lt;span style=&quot;font-size: 15px;&quot;&gt;搬楼费驳回&lt;/span&gt;" style="rounded=1;whiteSpace=wrap;html=1;fillColor=#dae8fc;strokeColor=#6c8ebf;" parent="1" vertex="1">
          <mxGeometry x="565" y="97.5" width="85" height="35" as="geometry" />
        </mxCell>
        <mxCell id="qCSMj7afyLva7ldJmSUC-12" value="&lt;span style=&quot;font-size: 15px;&quot;&gt;搬楼费已确认&lt;/span&gt;" style="rounded=1;whiteSpace=wrap;html=1;fillColor=#dae8fc;strokeColor=#6c8ebf;" parent="1" vertex="1">
          <mxGeometry x="682" y="158.5" width="59" height="35" as="geometry" />
        </mxCell>
        <mxCell id="qCSMj7afyLva7ldJmSUC-15" value="&lt;font style=&quot;font-size: 14px;&quot;&gt;驳回&lt;/font&gt;" style="text;html=1;align=center;verticalAlign=middle;resizable=0;points=[];autosize=1;strokeColor=none;fillColor=none;fontSize=18;" parent="1" vertex="1">
          <mxGeometry x="610" y="125" width="50" height="40" as="geometry" />
        </mxCell>
        <mxCell id="qCSMj7afyLva7ldJmSUC-17" value="确认" style="text;html=1;align=center;verticalAlign=middle;resizable=0;points=[];autosize=1;strokeColor=none;fillColor=none;fontSize=14;" parent="1" vertex="1">
          <mxGeometry x="650" y="187.5" width="50" height="30" as="geometry" />
        </mxCell>
        <mxCell id="qCSMj7afyLva7ldJmSUC-20" value="重新提交" style="text;html=1;align=center;verticalAlign=middle;resizable=0;points=[];autosize=1;strokeColor=none;fillColor=none;fontSize=14;" parent="1" vertex="1">
          <mxGeometry x="460" y="128.5" width="80" height="30" as="geometry" />
        </mxCell>
        <mxCell id="qCSMj7afyLva7ldJmSUC-40" style="edgeStyle=orthogonalEdgeStyle;rounded=0;orthogonalLoop=1;jettySize=auto;html=1;exitX=1;exitY=0.5;exitDx=0;exitDy=0;fontSize=14;" parent="1" source="qCSMj7afyLva7ldJmSUC-31" target="qCSMj7afyLva7ldJmSUC-32" edge="1">
          <mxGeometry relative="1" as="geometry" />
        </mxCell>
        <mxCell id="qCSMj7afyLva7ldJmSUC-43" style="edgeStyle=orthogonalEdgeStyle;rounded=0;orthogonalLoop=1;jettySize=auto;html=1;exitX=0.5;exitY=0;exitDx=0;exitDy=0;entryX=1;entryY=0.5;entryDx=0;entryDy=0;fontSize=14;" parent="1" source="qCSMj7afyLva7ldJmSUC-31" target="FDQOqPrQZNCEI5LStUVV-36" edge="1">
          <mxGeometry relative="1" as="geometry">
            <Array as="points">
              <mxPoint x="753" y="42" />
              <mxPoint x="970" y="42" />
              <mxPoint x="970" y="500" />
            </Array>
          </mxGeometry>
        </mxCell>
        <mxCell id="qCSMj7afyLva7ldJmSUC-31" value="&lt;span style=&quot;font-size: 15px;&quot;&gt;安装待验收&lt;/span&gt;" style="rounded=1;whiteSpace=wrap;html=1;fillColor=#dae8fc;strokeColor=#6c8ebf;" parent="1" vertex="1">
          <mxGeometry x="710.5" y="62.5" width="85" height="35" as="geometry" />
        </mxCell>
        <mxCell id="qCSMj7afyLva7ldJmSUC-42" style="edgeStyle=orthogonalEdgeStyle;rounded=0;orthogonalLoop=1;jettySize=auto;html=1;exitX=0.5;exitY=1;exitDx=0;exitDy=0;fontSize=14;" parent="1" source="qCSMj7afyLva7ldJmSUC-32" target="qCSMj7afyLva7ldJmSUC-4" edge="1">
          <mxGeometry relative="1" as="geometry" />
        </mxCell>
        <mxCell id="qCSMj7afyLva7ldJmSUC-32" value="&lt;span style=&quot;font-size: 15px;&quot;&gt;验收通过&lt;/span&gt;" style="rounded=1;whiteSpace=wrap;html=1;fillColor=#dae8fc;strokeColor=#6c8ebf;" parent="1" vertex="1">
          <mxGeometry x="870" y="61.5" width="85" height="35" as="geometry" />
        </mxCell>
        <mxCell id="qCSMj7afyLva7ldJmSUC-35" value="确认" style="text;html=1;align=center;verticalAlign=middle;resizable=0;points=[];autosize=1;strokeColor=none;fillColor=none;fontSize=14;" parent="1" vertex="1">
          <mxGeometry x="812.5" y="80" width="50" height="30" as="geometry" />
        </mxCell>
        <mxCell id="qCSMj7afyLva7ldJmSUC-37" value="验收不通过" style="text;html=1;align=center;verticalAlign=middle;resizable=0;points=[];autosize=1;strokeColor=none;fillColor=none;fontSize=14;" parent="1" vertex="1">
          <mxGeometry x="812.5" y="10" width="90" height="30" as="geometry" />
        </mxCell>
        <mxCell id="qCSMj7afyLva7ldJmSUC-46" style="edgeStyle=orthogonalEdgeStyle;rounded=0;orthogonalLoop=1;jettySize=auto;html=1;exitX=0.1;exitY=0.5;exitDx=0;exitDy=0;exitPerimeter=0;entryX=0.5;entryY=0;entryDx=0;entryDy=0;fontSize=14;" parent="1" source="qCSMj7afyLva7ldJmSUC-44" target="qCSMj7afyLva7ldJmSUC-45" edge="1">
          <mxGeometry relative="1" as="geometry" />
        </mxCell>
        <mxCell id="qCSMj7afyLva7ldJmSUC-44" value="" style="shape=curlyBracket;whiteSpace=wrap;html=1;rounded=1;fontSize=14;rotation=-90;" parent="1" vertex="1">
          <mxGeometry x="484.38" y="207.5" width="50" height="692.5" as="geometry" />
        </mxCell>
        <mxCell id="qCSMj7afyLva7ldJmSUC-45" value="已关闭" style="ellipse;whiteSpace=wrap;html=1;aspect=fixed;fontSize=23;fillColor=#f8cecc;strokeColor=#b85450;" parent="1" vertex="1">
          <mxGeometry x="469.38" y="600" width="80" height="80" as="geometry" />
        </mxCell>
        <mxCell id="qCSMj7afyLva7ldJmSUC-47" value="完成前&lt;br&gt;可取消" style="text;html=1;align=center;verticalAlign=middle;resizable=0;points=[];autosize=1;strokeColor=none;fillColor=none;fontSize=14;" parent="1" vertex="1">
          <mxGeometry x="440" y="556.25" width="70" height="50" as="geometry" />
        </mxCell>
        <mxCell id="qCSMj7afyLva7ldJmSUC-48" value="&lt;font style=&quot;font-size: 23px;&quot;&gt;开始&lt;/font&gt;" style="rounded=1;whiteSpace=wrap;html=1;fillColor=#d5e8d4;strokeColor=#82b366;" parent="1" vertex="1">
          <mxGeometry x="70" y="370" width="70" height="30" as="geometry" />
        </mxCell>
        <mxCell id="qCSMj7afyLva7ldJmSUC-49" value="待接单" style="ellipse;whiteSpace=wrap;html=1;aspect=fixed;fontSize=23;fillColor=#d5e8d4;strokeColor=#82b366;" parent="1" vertex="1">
          <mxGeometry x="200" y="345" width="80" height="80" as="geometry" />
        </mxCell>
        <mxCell id="qCSMj7afyLva7ldJmSUC-50" value="待发货" style="ellipse;whiteSpace=wrap;html=1;aspect=fixed;fontSize=23;fillColor=#d5e8d4;strokeColor=#82b366;" parent="1" vertex="1">
          <mxGeometry x="334" y="345" width="80" height="80" as="geometry" />
        </mxCell>
        <mxCell id="qCSMj7afyLva7ldJmSUC-51" value="待收货" style="ellipse;whiteSpace=wrap;html=1;aspect=fixed;fontSize=23;fillColor=#d5e8d4;strokeColor=#82b366;" parent="1" vertex="1">
          <mxGeometry x="450" y="345" width="80" height="80" as="geometry" />
        </mxCell>
        <mxCell id="qCSMj7afyLva7ldJmSUC-52" value="待签收" style="ellipse;whiteSpace=wrap;html=1;aspect=fixed;fontSize=23;fillColor=#d5e8d4;strokeColor=#82b366;" parent="1" vertex="1">
          <mxGeometry x="569.5" y="345" width="80" height="80" as="geometry" />
        </mxCell>
      </root>
    </mxGraphModel>
  </diagram>
  <diagram id="kThpkJV23j7CUQjCB20B" name="第 2 页">
    <mxGraphModel dx="1149" dy="645" grid="1" gridSize="10" guides="1" tooltips="1" connect="1" arrows="1" fold="1" page="1" pageScale="1" pageWidth="827" pageHeight="1169" math="0" shadow="0">
      <root>
        <mxCell id="0" />
        <mxCell id="1" parent="0" />
        <mxCell id="DA9ZrAkqEHVoDse1Cv5M-16" value="Pool" style="swimlane;childLayout=stackLayout;resizeParent=1;resizeParentMax=0;startSize=20;horizontal=0;horizontalStack=1;" vertex="1" parent="1">
          <mxGeometry x="200" y="90" width="670" height="180" as="geometry" />
        </mxCell>
        <mxCell id="DA9ZrAkqEHVoDse1Cv5M-17" value="vss" style="swimlane;startSize=20;fillColor=#d5e8d4;strokeColor=#82b366;" vertex="1" parent="DA9ZrAkqEHVoDse1Cv5M-16">
          <mxGeometry x="20" width="420" height="180" as="geometry" />
        </mxCell>
        <mxCell id="DA9ZrAkqEHVoDse1Cv5M-1" value="&lt;font style=&quot;font-size: 16px;&quot;&gt;接单/拒单&lt;/font&gt;" style="rounded=0;whiteSpace=wrap;html=1;fillColor=#dae8fc;strokeColor=#6c8ebf;" vertex="1" parent="DA9ZrAkqEHVoDse1Cv5M-17">
          <mxGeometry x="90" y="125" width="80" height="30" as="geometry" />
        </mxCell>
        <mxCell id="DA9ZrAkqEHVoDse1Cv5M-2" value="&lt;font style=&quot;font-size: 16px;&quot;&gt;备货&lt;/font&gt;" style="rounded=0;whiteSpace=wrap;html=1;fillColor=#dae8fc;strokeColor=#6c8ebf;" vertex="1" parent="DA9ZrAkqEHVoDse1Cv5M-17">
          <mxGeometry x="220" y="125" width="60" height="30" as="geometry" />
        </mxCell>
        <mxCell id="DA9ZrAkqEHVoDse1Cv5M-4" style="edgeStyle=orthogonalEdgeStyle;rounded=0;orthogonalLoop=1;jettySize=auto;html=1;exitX=1;exitY=0.5;exitDx=0;exitDy=0;" edge="1" parent="DA9ZrAkqEHVoDse1Cv5M-17" source="DA9ZrAkqEHVoDse1Cv5M-1" target="DA9ZrAkqEHVoDse1Cv5M-2">
          <mxGeometry relative="1" as="geometry" />
        </mxCell>
        <mxCell id="DA9ZrAkqEHVoDse1Cv5M-3" value="&lt;font style=&quot;font-size: 16px;&quot;&gt;发货&lt;/font&gt;" style="rounded=0;whiteSpace=wrap;html=1;fillColor=#dae8fc;strokeColor=#6c8ebf;" vertex="1" parent="DA9ZrAkqEHVoDse1Cv5M-17">
          <mxGeometry x="330" y="125" width="60" height="30" as="geometry" />
        </mxCell>
        <mxCell id="DA9ZrAkqEHVoDse1Cv5M-5" style="edgeStyle=orthogonalEdgeStyle;rounded=0;orthogonalLoop=1;jettySize=auto;html=1;exitX=1;exitY=0.5;exitDx=0;exitDy=0;" edge="1" parent="DA9ZrAkqEHVoDse1Cv5M-17" source="DA9ZrAkqEHVoDse1Cv5M-2" target="DA9ZrAkqEHVoDse1Cv5M-3">
          <mxGeometry relative="1" as="geometry" />
        </mxCell>
        <mxCell id="DA9ZrAkqEHVoDse1Cv5M-9" value="&lt;font style=&quot;font-size: 14px;&quot;&gt;待接单&lt;/font&gt;" style="shape=callout;whiteSpace=wrap;html=1;perimeter=calloutPerimeter;fillColor=#fff2cc;strokeColor=#d6b656;" vertex="1" parent="DA9ZrAkqEHVoDse1Cv5M-17">
          <mxGeometry x="100" y="55" width="80" height="60" as="geometry" />
        </mxCell>
        <mxCell id="DA9ZrAkqEHVoDse1Cv5M-10" value="&lt;font style=&quot;font-size: 14px;&quot;&gt;备货中&lt;/font&gt;" style="shape=callout;whiteSpace=wrap;html=1;perimeter=calloutPerimeter;fillColor=#fff2cc;strokeColor=#d6b656;" vertex="1" parent="DA9ZrAkqEHVoDse1Cv5M-17">
          <mxGeometry x="210" y="55" width="80" height="60" as="geometry" />
        </mxCell>
        <mxCell id="DA9ZrAkqEHVoDse1Cv5M-14" style="edgeStyle=orthogonalEdgeStyle;rounded=0;orthogonalLoop=1;jettySize=auto;html=1;exitX=0;exitY=0;exitDx=80;exitDy=15;exitPerimeter=0;entryX=0;entryY=0;entryDx=0;entryDy=15;entryPerimeter=0;dashed=1;" edge="1" parent="DA9ZrAkqEHVoDse1Cv5M-17" source="DA9ZrAkqEHVoDse1Cv5M-9" target="DA9ZrAkqEHVoDse1Cv5M-10">
          <mxGeometry relative="1" as="geometry" />
        </mxCell>
        <mxCell id="DA9ZrAkqEHVoDse1Cv5M-11" value="&lt;font style=&quot;font-size: 16px;&quot;&gt;操作&lt;/font&gt;" style="text;html=1;strokeColor=#6c8ebf;fillColor=#dae8fc;align=center;verticalAlign=middle;whiteSpace=wrap;rounded=0;" vertex="1" parent="DA9ZrAkqEHVoDse1Cv5M-17">
          <mxGeometry x="10" y="125" width="60" height="30" as="geometry" />
        </mxCell>
        <mxCell id="DA9ZrAkqEHVoDse1Cv5M-12" value="&lt;font style=&quot;font-size: 16px;&quot;&gt;状态&lt;/font&gt;" style="text;html=1;strokeColor=#d6b656;fillColor=#fff2cc;align=center;verticalAlign=middle;whiteSpace=wrap;rounded=0;" vertex="1" parent="DA9ZrAkqEHVoDse1Cv5M-17">
          <mxGeometry x="10" y="55" width="60" height="30" as="geometry" />
        </mxCell>
        <mxCell id="DA9ZrAkqEHVoDse1Cv5M-13" value="&lt;font style=&quot;font-size: 14px;&quot;&gt;待发货&lt;/font&gt;" style="shape=callout;whiteSpace=wrap;html=1;perimeter=calloutPerimeter;fillColor=#fff2cc;strokeColor=#d6b656;" vertex="1" parent="DA9ZrAkqEHVoDse1Cv5M-17">
          <mxGeometry x="320" y="55" width="80" height="60" as="geometry" />
        </mxCell>
        <mxCell id="DA9ZrAkqEHVoDse1Cv5M-15" style="edgeStyle=orthogonalEdgeStyle;rounded=0;orthogonalLoop=1;jettySize=auto;html=1;exitX=0;exitY=0;exitDx=80;exitDy=15;exitPerimeter=0;entryX=0;entryY=0;entryDx=0;entryDy=15;entryPerimeter=0;dashed=1;" edge="1" parent="DA9ZrAkqEHVoDse1Cv5M-17" source="DA9ZrAkqEHVoDse1Cv5M-10" target="DA9ZrAkqEHVoDse1Cv5M-13">
          <mxGeometry relative="1" as="geometry" />
        </mxCell>
        <mxCell id="DA9ZrAkqEHVoDse1Cv5M-18" value="oms" style="swimlane;startSize=20;fillColor=#f8cecc;strokeColor=#b85450;" vertex="1" parent="DA9ZrAkqEHVoDse1Cv5M-16">
          <mxGeometry x="440" width="230" height="180" as="geometry" />
        </mxCell>
        <mxCell id="ZajYav1aMixqsbRKhetN-3" style="edgeStyle=orthogonalEdgeStyle;rounded=0;orthogonalLoop=1;jettySize=auto;html=1;exitX=1;exitY=0.5;exitDx=0;exitDy=0;" edge="1" parent="DA9ZrAkqEHVoDse1Cv5M-18" source="DA9ZrAkqEHVoDse1Cv5M-20" target="ZajYav1aMixqsbRKhetN-2">
          <mxGeometry relative="1" as="geometry" />
        </mxCell>
        <mxCell id="DA9ZrAkqEHVoDse1Cv5M-20" value="&lt;font style=&quot;font-size: 16px;&quot;&gt;oms签收&lt;/font&gt;" style="rounded=0;whiteSpace=wrap;html=1;fillColor=#dae8fc;strokeColor=#6c8ebf;" vertex="1" parent="DA9ZrAkqEHVoDse1Cv5M-18">
          <mxGeometry x="20" y="125" width="70" height="30" as="geometry" />
        </mxCell>
        <mxCell id="ZajYav1aMixqsbRKhetN-6" style="edgeStyle=orthogonalEdgeStyle;rounded=0;orthogonalLoop=1;jettySize=auto;html=1;exitX=0;exitY=0;exitDx=80;exitDy=15;exitPerimeter=0;entryX=0;entryY=0;entryDx=0;entryDy=15;entryPerimeter=0;dashed=1;" edge="1" parent="DA9ZrAkqEHVoDse1Cv5M-18" source="ZajYav1aMixqsbRKhetN-1" target="ZajYav1aMixqsbRKhetN-4">
          <mxGeometry relative="1" as="geometry" />
        </mxCell>
        <mxCell id="ZajYav1aMixqsbRKhetN-1" value="&lt;font style=&quot;font-size: 14px;&quot;&gt;待收货&lt;/font&gt;" style="shape=callout;whiteSpace=wrap;html=1;perimeter=calloutPerimeter;fillColor=#fff2cc;strokeColor=#d6b656;" vertex="1" parent="DA9ZrAkqEHVoDse1Cv5M-18">
          <mxGeometry x="15" y="55" width="80" height="60" as="geometry" />
        </mxCell>
        <mxCell id="ZajYav1aMixqsbRKhetN-2" value="&lt;font style=&quot;font-size: 16px;&quot;&gt;完成&lt;/font&gt;" style="rounded=1;whiteSpace=wrap;html=1;fillColor=#dae8fc;strokeColor=#6c8ebf;" vertex="1" parent="DA9ZrAkqEHVoDse1Cv5M-18">
          <mxGeometry x="130" y="125" width="70" height="30" as="geometry" />
        </mxCell>
        <mxCell id="ZajYav1aMixqsbRKhetN-4" value="&lt;font style=&quot;font-size: 14px;&quot;&gt;已完成&lt;/font&gt;" style="shape=callout;whiteSpace=wrap;html=1;perimeter=calloutPerimeter;fillColor=#fff2cc;strokeColor=#d6b656;" vertex="1" parent="DA9ZrAkqEHVoDse1Cv5M-18">
          <mxGeometry x="120" y="55" width="80" height="60" as="geometry" />
        </mxCell>
        <mxCell id="DA9ZrAkqEHVoDse1Cv5M-21" style="edgeStyle=orthogonalEdgeStyle;rounded=0;orthogonalLoop=1;jettySize=auto;html=1;exitX=1;exitY=0.5;exitDx=0;exitDy=0;" edge="1" parent="DA9ZrAkqEHVoDse1Cv5M-16" source="DA9ZrAkqEHVoDse1Cv5M-3" target="DA9ZrAkqEHVoDse1Cv5M-20">
          <mxGeometry relative="1" as="geometry" />
        </mxCell>
        <mxCell id="ZajYav1aMixqsbRKhetN-5" style="edgeStyle=orthogonalEdgeStyle;rounded=0;orthogonalLoop=1;jettySize=auto;html=1;exitX=0;exitY=0;exitDx=80;exitDy=15;exitPerimeter=0;entryX=0;entryY=0;entryDx=0;entryDy=15;entryPerimeter=0;dashed=1;" edge="1" parent="DA9ZrAkqEHVoDse1Cv5M-16" source="DA9ZrAkqEHVoDse1Cv5M-13" target="ZajYav1aMixqsbRKhetN-1">
          <mxGeometry relative="1" as="geometry" />
        </mxCell>
        <mxCell id="ZajYav1aMixqsbRKhetN-7" value="&lt;font style=&quot;font-size: 16px;&quot;&gt;被窝-代销直送流程&lt;/font&gt;" style="text;html=1;strokeColor=#9673a6;fillColor=#e1d5e7;align=center;verticalAlign=middle;whiteSpace=wrap;rounded=0;" vertex="1" parent="1">
          <mxGeometry x="470" y="40" width="200" height="30" as="geometry" />
        </mxCell>
        <mxCell id="ZajYav1aMixqsbRKhetN-31" value="&lt;font style=&quot;font-size: 16px;&quot;&gt;被窝-代销配送流程&lt;/font&gt;" style="text;html=1;strokeColor=#9673a6;fillColor=#e1d5e7;align=center;verticalAlign=middle;whiteSpace=wrap;rounded=0;" vertex="1" parent="1">
          <mxGeometry x="670" y="830" width="200" height="30" as="geometry" />
        </mxCell>
        <mxCell id="_52PNUqfLTyVPF3RTZL7-8" style="edgeStyle=orthogonalEdgeStyle;rounded=0;orthogonalLoop=1;jettySize=auto;html=1;exitX=1;exitY=0.5;exitDx=0;exitDy=0;" edge="1" parent="1" source="_52PNUqfLTyVPF3RTZL7-1" target="_52PNUqfLTyVPF3RTZL7-7">
          <mxGeometry relative="1" as="geometry" />
        </mxCell>
        <mxCell id="BIHlbXnrbX1oEFy_IqfO-36" style="edgeStyle=orthogonalEdgeStyle;rounded=0;orthogonalLoop=1;jettySize=auto;html=1;exitX=0.5;exitY=0;exitDx=0;exitDy=0;entryX=0.5;entryY=1;entryDx=0;entryDy=0;" edge="1" parent="1" source="_52PNUqfLTyVPF3RTZL7-1" target="BIHlbXnrbX1oEFy_IqfO-35">
          <mxGeometry relative="1" as="geometry" />
        </mxCell>
        <mxCell id="_52PNUqfLTyVPF3RTZL7-1" value="&lt;font style=&quot;font-size: 16px;&quot;&gt;待接单&lt;/font&gt;" style="ellipse;whiteSpace=wrap;html=1;aspect=fixed;fontSize=23;fillColor=#d5e8d4;strokeColor=#82b366;" vertex="1" parent="1">
          <mxGeometry x="260" y="630" width="50" height="50" as="geometry" />
        </mxCell>
        <mxCell id="BIHlbXnrbX1oEFy_IqfO-6" style="edgeStyle=orthogonalEdgeStyle;rounded=0;orthogonalLoop=1;jettySize=auto;html=1;exitX=1;exitY=0.5;exitDx=0;exitDy=0;" edge="1" parent="1" source="_52PNUqfLTyVPF3RTZL7-4" target="BIHlbXnrbX1oEFy_IqfO-5">
          <mxGeometry relative="1" as="geometry" />
        </mxCell>
        <mxCell id="BIHlbXnrbX1oEFy_IqfO-37" style="edgeStyle=orthogonalEdgeStyle;rounded=0;orthogonalLoop=1;jettySize=auto;html=1;exitX=0.5;exitY=0;exitDx=0;exitDy=0;" edge="1" parent="1" source="_52PNUqfLTyVPF3RTZL7-4">
          <mxGeometry relative="1" as="geometry">
            <mxPoint x="400" y="550" as="targetPoint" />
          </mxGeometry>
        </mxCell>
        <mxCell id="_52PNUqfLTyVPF3RTZL7-4" value="&lt;font style=&quot;font-size: 16px;&quot;&gt;备货中&lt;/font&gt;" style="ellipse;whiteSpace=wrap;html=1;aspect=fixed;fontSize=23;fillColor=#d5e8d4;strokeColor=#82b366;" vertex="1" parent="1">
          <mxGeometry x="480" y="630" width="50" height="50" as="geometry" />
        </mxCell>
        <mxCell id="_52PNUqfLTyVPF3RTZL7-9" style="edgeStyle=orthogonalEdgeStyle;rounded=0;orthogonalLoop=1;jettySize=auto;html=1;exitX=1;exitY=0.5;exitDx=0;exitDy=0;" edge="1" parent="1" source="_52PNUqfLTyVPF3RTZL7-7" target="_52PNUqfLTyVPF3RTZL7-4">
          <mxGeometry relative="1" as="geometry" />
        </mxCell>
        <mxCell id="BIHlbXnrbX1oEFy_IqfO-2" style="edgeStyle=orthogonalEdgeStyle;rounded=0;orthogonalLoop=1;jettySize=auto;html=1;exitX=0.5;exitY=1;exitDx=0;exitDy=0;entryX=0.5;entryY=0;entryDx=0;entryDy=0;" edge="1" parent="1" source="_52PNUqfLTyVPF3RTZL7-7" target="BIHlbXnrbX1oEFy_IqfO-1">
          <mxGeometry relative="1" as="geometry" />
        </mxCell>
        <mxCell id="_52PNUqfLTyVPF3RTZL7-7" value="&lt;font style=&quot;font-size: 16px;&quot;&gt;接单/拒单&lt;/font&gt;" style="rhombus;whiteSpace=wrap;html=1;fillColor=#f8cecc;strokeColor=#b85450;" vertex="1" parent="1">
          <mxGeometry x="360" y="622.5" width="80" height="65" as="geometry" />
        </mxCell>
        <mxCell id="BIHlbXnrbX1oEFy_IqfO-1" value="&lt;font style=&quot;font-size: 16px;&quot;&gt;已关闭&lt;/font&gt;" style="ellipse;whiteSpace=wrap;html=1;aspect=fixed;fontSize=23;fillColor=#d5e8d4;strokeColor=#82b366;" vertex="1" parent="1">
          <mxGeometry x="375" y="730" width="50" height="50" as="geometry" />
        </mxCell>
        <mxCell id="BIHlbXnrbX1oEFy_IqfO-3" value="&lt;font style=&quot;font-size: 14px;&quot;&gt;&lt;b&gt;接单&lt;/b&gt;&lt;/font&gt;" style="text;html=1;strokeColor=none;fillColor=none;align=center;verticalAlign=middle;whiteSpace=wrap;rounded=0;" vertex="1" parent="1">
          <mxGeometry x="430" y="622.5" width="60" height="30" as="geometry" />
        </mxCell>
        <mxCell id="BIHlbXnrbX1oEFy_IqfO-4" value="&lt;font style=&quot;font-size: 14px;&quot;&gt;&lt;b&gt;拒单&lt;/b&gt;&lt;/font&gt;" style="text;html=1;strokeColor=none;fillColor=none;align=center;verticalAlign=middle;whiteSpace=wrap;rounded=0;" vertex="1" parent="1">
          <mxGeometry x="400" y="690" width="60" height="30" as="geometry" />
        </mxCell>
        <mxCell id="BIHlbXnrbX1oEFy_IqfO-10" style="edgeStyle=orthogonalEdgeStyle;rounded=0;orthogonalLoop=1;jettySize=auto;html=1;exitX=1;exitY=0.5;exitDx=0;exitDy=0;" edge="1" parent="1" source="BIHlbXnrbX1oEFy_IqfO-5" target="BIHlbXnrbX1oEFy_IqfO-9">
          <mxGeometry relative="1" as="geometry" />
        </mxCell>
        <mxCell id="BIHlbXnrbX1oEFy_IqfO-5" value="&lt;font style=&quot;font-size: 16px;&quot;&gt;备货完成&lt;/font&gt;" style="rounded=0;whiteSpace=wrap;html=1;fillColor=#f8cecc;strokeColor=#b85450;" vertex="1" parent="1">
          <mxGeometry x="570" y="640" width="70" height="30" as="geometry" />
        </mxCell>
        <mxCell id="BIHlbXnrbX1oEFy_IqfO-13" style="edgeStyle=orthogonalEdgeStyle;rounded=0;orthogonalLoop=1;jettySize=auto;html=1;exitX=1;exitY=0.5;exitDx=0;exitDy=0;entryX=0;entryY=0.5;entryDx=0;entryDy=0;" edge="1" parent="1" source="BIHlbXnrbX1oEFy_IqfO-9" target="BIHlbXnrbX1oEFy_IqfO-11">
          <mxGeometry relative="1" as="geometry" />
        </mxCell>
        <mxCell id="BIHlbXnrbX1oEFy_IqfO-9" value="&lt;font style=&quot;font-size: 16px;&quot;&gt;待发货&lt;/font&gt;" style="ellipse;whiteSpace=wrap;html=1;aspect=fixed;fontSize=23;fillColor=#d5e8d4;strokeColor=#82b366;" vertex="1" parent="1">
          <mxGeometry x="690" y="630" width="50" height="50" as="geometry" />
        </mxCell>
        <mxCell id="BIHlbXnrbX1oEFy_IqfO-14" style="edgeStyle=orthogonalEdgeStyle;rounded=0;orthogonalLoop=1;jettySize=auto;html=1;exitX=1;exitY=0.5;exitDx=0;exitDy=0;" edge="1" parent="1" source="BIHlbXnrbX1oEFy_IqfO-11" target="BIHlbXnrbX1oEFy_IqfO-12">
          <mxGeometry relative="1" as="geometry" />
        </mxCell>
        <mxCell id="BIHlbXnrbX1oEFy_IqfO-11" value="&lt;font style=&quot;font-size: 16px;&quot;&gt;发货&lt;/font&gt;" style="rounded=0;whiteSpace=wrap;html=1;fillColor=#f8cecc;strokeColor=#b85450;" vertex="1" parent="1">
          <mxGeometry x="770" y="640" width="70" height="30" as="geometry" />
        </mxCell>
        <mxCell id="BIHlbXnrbX1oEFy_IqfO-29" style="edgeStyle=orthogonalEdgeStyle;rounded=0;orthogonalLoop=1;jettySize=auto;html=1;exitX=1;exitY=0.5;exitDx=0;exitDy=0;" edge="1" parent="1" source="BIHlbXnrbX1oEFy_IqfO-12" target="BIHlbXnrbX1oEFy_IqfO-28">
          <mxGeometry relative="1" as="geometry" />
        </mxCell>
        <mxCell id="BIHlbXnrbX1oEFy_IqfO-31" style="edgeStyle=orthogonalEdgeStyle;rounded=0;orthogonalLoop=1;jettySize=auto;html=1;exitX=0.5;exitY=1;exitDx=0;exitDy=0;entryX=0.5;entryY=0;entryDx=0;entryDy=0;" edge="1" parent="1" source="BIHlbXnrbX1oEFy_IqfO-12" target="BIHlbXnrbX1oEFy_IqfO-15">
          <mxGeometry relative="1" as="geometry" />
        </mxCell>
        <mxCell id="BIHlbXnrbX1oEFy_IqfO-12" value="&lt;font style=&quot;font-size: 16px;&quot;&gt;待收货&lt;/font&gt;" style="ellipse;whiteSpace=wrap;html=1;aspect=fixed;fontSize=23;fillColor=#d5e8d4;strokeColor=#82b366;" vertex="1" parent="1">
          <mxGeometry x="870" y="630" width="50" height="50" as="geometry" />
        </mxCell>
        <mxCell id="BIHlbXnrbX1oEFy_IqfO-32" style="edgeStyle=orthogonalEdgeStyle;rounded=0;orthogonalLoop=1;jettySize=auto;html=1;exitX=1;exitY=0.5;exitDx=0;exitDy=0;entryX=0;entryY=0.5;entryDx=0;entryDy=0;" edge="1" parent="1" source="BIHlbXnrbX1oEFy_IqfO-15" target="BIHlbXnrbX1oEFy_IqfO-17">
          <mxGeometry relative="1" as="geometry" />
        </mxCell>
        <mxCell id="BIHlbXnrbX1oEFy_IqfO-15" value="&lt;font style=&quot;font-size: 16px;&quot;&gt;wms部分收货&lt;/font&gt;" style="rounded=0;whiteSpace=wrap;html=1;fillColor=#f8cecc;strokeColor=#b85450;" vertex="1" parent="1">
          <mxGeometry x="855" y="735" width="80" height="40" as="geometry" />
        </mxCell>
        <mxCell id="BIHlbXnrbX1oEFy_IqfO-33" style="edgeStyle=orthogonalEdgeStyle;rounded=0;orthogonalLoop=1;jettySize=auto;html=1;exitX=1;exitY=0.5;exitDx=0;exitDy=0;" edge="1" parent="1" source="BIHlbXnrbX1oEFy_IqfO-17" target="BIHlbXnrbX1oEFy_IqfO-21">
          <mxGeometry relative="1" as="geometry" />
        </mxCell>
        <mxCell id="BIHlbXnrbX1oEFy_IqfO-17" value="&lt;font style=&quot;font-size: 16px;&quot;&gt;部分收货&lt;/font&gt;" style="ellipse;whiteSpace=wrap;html=1;aspect=fixed;fontSize=23;fillColor=#d5e8d4;strokeColor=#82b366;" vertex="1" parent="1">
          <mxGeometry x="970" y="720" width="70" height="70" as="geometry" />
        </mxCell>
        <mxCell id="BIHlbXnrbX1oEFy_IqfO-27" style="edgeStyle=orthogonalEdgeStyle;rounded=0;orthogonalLoop=1;jettySize=auto;html=1;exitX=1;exitY=0.5;exitDx=0;exitDy=0;" edge="1" parent="1" source="BIHlbXnrbX1oEFy_IqfO-21" target="BIHlbXnrbX1oEFy_IqfO-23">
          <mxGeometry relative="1" as="geometry" />
        </mxCell>
        <mxCell id="BIHlbXnrbX1oEFy_IqfO-21" value="&lt;font style=&quot;font-size: 16px;&quot;&gt;发货&lt;/font&gt;" style="rounded=0;whiteSpace=wrap;html=1;fillColor=#f8cecc;strokeColor=#b85450;" vertex="1" parent="1">
          <mxGeometry x="1070" y="740" width="70" height="30" as="geometry" />
        </mxCell>
        <mxCell id="BIHlbXnrbX1oEFy_IqfO-34" style="edgeStyle=orthogonalEdgeStyle;rounded=0;orthogonalLoop=1;jettySize=auto;html=1;exitX=0.5;exitY=0;exitDx=0;exitDy=0;" edge="1" parent="1" source="BIHlbXnrbX1oEFy_IqfO-23" target="BIHlbXnrbX1oEFy_IqfO-28">
          <mxGeometry relative="1" as="geometry" />
        </mxCell>
        <mxCell id="BIHlbXnrbX1oEFy_IqfO-23" value="&lt;font style=&quot;font-size: 16px;&quot;&gt;部分收货&lt;/font&gt;" style="ellipse;whiteSpace=wrap;html=1;aspect=fixed;fontSize=23;fillColor=#d5e8d4;strokeColor=#82b366;" vertex="1" parent="1">
          <mxGeometry x="1160" y="720" width="70" height="70" as="geometry" />
        </mxCell>
        <mxCell id="BIHlbXnrbX1oEFy_IqfO-28" value="&lt;font style=&quot;font-size: 16px;&quot;&gt;wms收货完成&lt;/font&gt;" style="rounded=0;whiteSpace=wrap;html=1;fillColor=#f8cecc;strokeColor=#b85450;" vertex="1" parent="1">
          <mxGeometry x="1155" y="635" width="80" height="40" as="geometry" />
        </mxCell>
        <mxCell id="BIHlbXnrbX1oEFy_IqfO-35" value="&lt;span style=&quot;font-size: 16px;&quot;&gt;补充报价&lt;/span&gt;" style="rounded=0;whiteSpace=wrap;html=1;fillColor=#f8cecc;strokeColor=#b85450;" vertex="1" parent="1">
          <mxGeometry x="365" y="520" width="70" height="30" as="geometry" />
        </mxCell>
        <mxCell id="BIHlbXnrbX1oEFy_IqfO-38" value="&lt;font style=&quot;font-size: 13px;&quot;&gt;报价模式&lt;br&gt;priceMode =1&lt;/font&gt;" style="text;html=1;strokeColor=none;fillColor=none;align=center;verticalAlign=middle;whiteSpace=wrap;rounded=0;" vertex="1" parent="1">
          <mxGeometry x="414" y="555" width="96" height="30" as="geometry" />
        </mxCell>
      </root>
    </mxGraphModel>
  </diagram>
</mxfile>
